# xmcd
#
# Track frame offsets: 
#        150
#        25503
#        62058
#        92574
#        117629
#        134506
#        168664
#        203484
#        234256
#        244625
#        275702
#        301732
#
# Disc length: 4396 seconds
#
# Revision: 0
# Processed by: cddbd v1.5.2PL0 Copyright (c) Steve Scherf et al.
# Submitted via: ExactAudioCopy v0.99pb4
#
DISCID=9d112a0c
DTITLE=LENNY MAC DOWELL - Get Ready
DYEAR=2009
DGENRE=Jazz
TTITLE0=The Getto
TTITLE1=Liar
TTITLE2=Is it Funky
TTITLE3=Get Ready
TTITLE4=Bouree
TTITLE5=To Remember 
TTITLE6=Heaven
TTITLE7=La Changa
TTITLE8=Far Away (Interlude)
TTITLE9=With a Little Smile
TTITLE10=Scandic
TTITLE11=Diamond Touch
EXTD=
EXTT0=
EXTT1=
EXTT2=
EXTT3=
EXTT4=
EXTT5=
EXTT6=
EXTT7=
EXTT8=
EXTT9=
EXTT10=
EXTT11=
PLAYORDER=
